<?xml version="1.0"?>
<!DOCTYPE svg PUBLIC "-//W3C//DTD SVG 1.1//EN" "http://www.w3.org/Graphics/SVG/1.1/DTD/svg11.dtd">
<svg width="133.518mm" height="92.08708119369926mm" viewBox="0 0 133.518 92.08708119369926" xmlns="http://www.w3.org/2000/svg" version="1.1">
<g id="Body003" transform="translate(66.759000,92.436315) scale(1,-1)">
<path id="Body003_f0000"  d="M -60.1 83.15843051370419 L 60.1 83.15843051370419 L 60.1 9.354999680287762 L -60.1 9.354999680287758 L -60.1 83.15843051370419 Z M 65.45 1.658234008204925 L 65.45 89.57240190710651 L -65.45 89.57240190710651 L -65.45 1.6582340082049267 L 65.45 1.658234008204925 Z " stroke="#191919" stroke-width="0.35 px" style="stroke-width:0.35;stroke-miterlimit:4;stroke-dasharray:none;stroke-linecap:square;fill:#cccccc;fill-opacity:1.0;fill-rule: evenodd"/>
<path id="Body003_f0001"  d="M -60.1 83.15843051370419 M -60.1 83.15843051370419 L -59.1 82.82153875951644 L 59.1 82.82153875951644 M 59.1 82.82153875951644 L 60.1 83.15843051370419 L -60.1 83.15843051370419 Z " stroke="#191919" stroke-width="0.35 px" style="stroke-width:0.35;stroke-miterlimit:4;stroke-dasharray:none;stroke-linecap:square;fill:#cccccc;fill-opacity:1.0;fill-rule: evenodd"/>
<path id="Body003_f0002"  d="M -60.1 9.354999680287758 M -60.1 9.354999680287754 L -59.1 10.728500297673964 L -59.1 82.82153875951644 M -59.1 82.82153875951644 L -60.1 83.15843051370419 L -60.1 9.354999680287758 Z " stroke="#191919" stroke-width="0.35 px" style="stroke-width:0.35;stroke-miterlimit:4;stroke-dasharray:none;stroke-linecap:square;fill:#cccccc;fill-opacity:1.0;fill-rule: evenodd"/>
<path id="Body003_f0003"  d="M 60.1 83.15843051370419 M 60.1 83.15843051370419 L 59.1 82.82153875951644 L 59.1 10.728500297673975 M 59.1 10.728500297673962 L 60.1 9.35499968028775 L 60.1 83.15843051370419 Z " stroke="#191919" stroke-width="0.35 px" style="stroke-width:0.35;stroke-miterlimit:4;stroke-dasharray:none;stroke-linecap:square;fill:#cccccc;fill-opacity:1.0;fill-rule: evenodd"/>
<path id="Body003_f0004"  d="M 60.1 9.354999680287762 M 60.1 9.35499968028775 L 59.1 10.728500297673962 L -59.1 10.728500297673968 M -59.1 10.728500297673964 L -60.1 9.354999680287754 L 60.1 9.354999680287754 Z " stroke="#191919" stroke-width="0.35 px" style="stroke-width:0.35;stroke-miterlimit:4;stroke-dasharray:none;stroke-linecap:square;fill:#cccccc;fill-opacity:1.0;fill-rule: evenodd"/>
<path id="Body003_f0005"  d="M -65.45 91.1273152019042 L -65.45 89.57240190710651 L 65.45 89.57240190710651 L 65.45 91.1273152019042 L -65.45 91.1273152019042 Z " stroke="#191919" stroke-width="0.35 px" style="stroke-width:0.35;stroke-miterlimit:4;stroke-dasharray:none;stroke-linecap:square;fill:#cccccc;fill-opacity:1.0;fill-rule: evenodd"/>
<path id="Body003_f0006"  d="M -65.45 3.2131473030026125 L -65.45 1.658234008204925 L -65.45 89.57240190710651 L -65.45 91.1273152019042 L -65.45 3.2131473030026125 Z " stroke="#191919" stroke-width="0.35 px" style="stroke-width:0.35;stroke-miterlimit:4;stroke-dasharray:none;stroke-linecap:square;fill:#cccccc;fill-opacity:1.0;fill-rule: evenodd"/>
<path id="Body003_f0007"  d="M 65.45 91.1273152019042 L 65.45 89.57240190710651 L 65.45 1.658234008204925 L 65.45 3.2131473030026125 L 65.45 91.1273152019042 Z " stroke="#191919" stroke-width="0.35 px" style="stroke-width:0.35;stroke-miterlimit:4;stroke-dasharray:none;stroke-linecap:square;fill:#cccccc;fill-opacity:1.0;fill-rule: evenodd"/>
<path id="Body003_f0008"  d="M 65.45 3.2131473030026125 L 65.45 1.658234008204925 L -65.45 1.658234008204925 L -65.45 3.2131473030026125 L 65.45 3.2131473030026125 Z " stroke="#191919" stroke-width="0.35 px" style="stroke-width:0.35;stroke-miterlimit:4;stroke-dasharray:none;stroke-linecap:square;fill:#cccccc;fill-opacity:1.0;fill-rule: evenodd"/>
<path id="Body003_f0009"  d="M -59.1 83.85814762271488 L -59.1 82.82153875951644 L 59.1 82.82153875951644 L 59.1 83.85814762271488 L -59.1 83.85814762271488 Z " stroke="#191919" stroke-width="0.35 px" style="stroke-width:0.35;stroke-miterlimit:4;stroke-dasharray:none;stroke-linecap:square;fill:#cccccc;fill-opacity:1.0;fill-rule: evenodd"/>
<path id="Body003_f0010"  d="M -59.1 11.765109160872422 L -59.1 10.72850029767397 L -59.1 82.82153875951644 L -59.1 83.85814762271488 L -59.1 11.765109160872424 Z " stroke="#191919" stroke-width="0.35 px" style="stroke-width:0.35;stroke-miterlimit:4;stroke-dasharray:none;stroke-linecap:square;fill:#cccccc;fill-opacity:1.0;fill-rule: evenodd"/>
<path id="Body003_f0011"  d="M 59.1 83.85814762271488 L 59.1 82.82153875951644 L 59.1 10.728500297673975 L 59.1 11.765109160872422 L 59.1 83.85814762271488 Z " stroke="#191919" stroke-width="0.35 px" style="stroke-width:0.35;stroke-miterlimit:4;stroke-dasharray:none;stroke-linecap:square;fill:#cccccc;fill-opacity:1.0;fill-rule: evenodd"/>
<path id="Body003_f0012"  d="M 59.1 11.765109160872422 L 59.1 10.728500297673975 L -59.1 10.728500297673968 L -59.1 11.765109160872422 L 59.1 11.765109160872422 Z " stroke="#191919" stroke-width="0.35 px" style="stroke-width:0.35;stroke-miterlimit:4;stroke-dasharray:none;stroke-linecap:square;fill:#cccccc;fill-opacity:1.0;fill-rule: evenodd"/>
<path id="Body003_f0013"  d="M 65.45 3.2131473030026125 L -65.45 3.2131473030026125 L -65.45 91.1273152019042 L 65.45 91.1273152019042 L 65.45 3.2131473030026125 Z M 59.1 83.85814762271488 L -59.1 83.85814762271488 L -59.1 11.765109160872424 L 59.1 11.765109160872422 L 59.1 83.85814762271488 Z " stroke="#191919" stroke-width="0.35 px" style="stroke-width:0.35;stroke-miterlimit:4;stroke-dasharray:none;stroke-linecap:square;fill:#cccccc;fill-opacity:1.0;fill-rule: evenodd"/>
<title>b'StreamDeck Panel'</title>
</g>
</svg>